<svg width="388" height="212" viewBox="0 0 388 212" fill="none" xmlns="http://www.w3.org/2000/svg">
<path fill-rule="evenodd" clip-rule="evenodd" d="M286.89 202.5C306.228 181.053 318 152.651 318 121.5C318 54.6735 263.826 0.5 197 0.5C130.174 0.5 76 54.6735 76 121.5C76 152.651 87.7719 181.053 107.11 202.5H286.89Z" fill="#E5EEEF"/>
<path d="M193.9 211.388C300.988 211.388 387.8 206.329 387.8 200.088C387.8 193.847 300.988 188.788 193.9 188.788C86.812 188.788 0 193.847 0 200.088C0 206.329 86.812 211.388 193.9 211.388Z" fill="#E5F6F7"/>
<path d="M166.4 88.6882C167.8 66.2882 165.2 25.5882 207.3 30.9882C252.4 36.7882 239.5 89.5882 239.5 89.5882L166.4 88.6882Z" fill="#005461"/>
<path d="M195.4 75.1882C205.562 75.1882 213.8 66.9502 213.8 56.7882C213.8 46.6262 205.562 38.3882 195.4 38.3882C185.238 38.3882 177 46.6262 177 56.7882C177 66.9502 185.238 75.1882 195.4 75.1882Z" fill="white"/>
<path d="M197.8 38.4882C189.1 36.9882 179.8 43.3882 178.9 49.8882L213.4 53.0882C212.2 45.6882 204.7 39.6882 197.8 38.4882Z" fill="#005461"/>
<path d="M209.5 56.3882C209.3 61.1882 206.6 64.9882 203.7 64.7882C200.7 64.5882 198.5 60.5882 198.7 55.7882C198.9 50.9882 201.6 47.1882 204.5 47.3882C207.5 47.5882 209.7 51.5882 209.5 56.3882Z" fill="#005461"/>
<path d="M195.4 76.1882C184.7 76.1882 176 67.4882 176 56.7882C176 46.0882 184.7 37.3882 195.4 37.3882C206.1 37.3882 214.8 46.0882 214.8 56.7882C214.8 67.4882 206.1 76.1882 195.4 76.1882ZM195.4 39.4882C185.8 39.4882 178 47.2882 178 56.8882C178 66.4882 185.8 74.2882 195.4 74.2882C205 74.2882 212.8 66.4882 212.8 56.8882C212.8 47.2882 205 39.4882 195.4 39.4882Z" fill="#00A5AE"/>
<path opacity="0.3" d="M234.4 88.0882H234.3C234 87.9882 233.9 87.7882 233.9 87.4882C233.9 87.3882 237.1 73.7882 233.8 60.0882C233.7 59.7882 233.9 59.5882 234.2 59.4882C234.5 59.3882 234.7 59.5882 234.8 59.8882C238.2 73.8882 234.9 87.5882 234.9 87.7882C234.8 87.9882 234.6 88.0882 234.4 88.0882Z" fill="white"/>
<path opacity="0.3" d="M231.6 52.5882C231.4 52.5882 231.2 52.4882 231.1 52.2882C229.8 49.4882 228.2 46.8882 226.4 44.5882C226.2 44.3882 226.3 44.0882 226.5 43.8882C226.7 43.6882 227 43.7882 227.2 43.9882C229.1 46.2882 230.8 48.9882 232.1 51.8882C232.2 52.1882 232.1 52.3882 231.9 52.5882C231.7 52.5882 231.7 52.5882 231.6 52.5882Z" fill="white"/>
<path d="M72.6 193.788C72.5 193.788 72.4001 193.788 72.2001 193.788C69.4001 193.688 67.3 191.388 67.3 188.688C67.4 185.888 69.6 183.788 72.4 183.788H72.5001C75.4001 183.788 82.3 180.288 96.9 157.388C97.7 156.188 99 155.288 100.4 155.088C101.8 154.888 103.3 155.288 104.4 156.288C122.3 171.888 141.4 181.688 141.5 181.788C144 183.088 144.9 186.088 143.7 188.488C142.4 190.988 139.4 191.888 137 190.688C136.2 190.288 119.6 181.788 102.2 167.588C90.2001 185.788 81.1 193.788 72.6 193.788Z" fill="#005461"/>
<path d="M103.6 155.288C103.5 155.288 103.3 155.288 103.2 155.288C101.6 155.088 100.4 153.488 100.7 151.888C101.4 146.888 100.5 128.288 94.2 113.788C93.6 112.488 94.1 110.888 95.3 110.088C109 100.788 138.2 99.5882 139.4 99.5882C141 99.5882 142.4 100.788 142.5 102.488C142.6 104.188 141.3 105.488 139.6 105.588C139.3 105.588 113.8 106.588 100.7 113.788C106.3 128.188 107.5 146.188 106.6 152.688C106.3 154.288 105 155.288 103.6 155.288Z" fill="#005461"/>
<path d="M108.6 151.488C106.6 146.788 97.6001 147.288 92.3001 151.388C89.5001 153.588 85.7001 159.988 85.3001 162.388C84.9001 164.788 86.5001 166.888 89.3001 166.588C92.7001 166.288 97.5001 161.288 97.5001 161.288C94.4001 164.388 98.4001 166.588 104.5 162.088C107.8 159.588 110.8 156.688 108.6 151.488Z" fill="#00A5AE"/>
<path d="M280.6 89.9882H280.5C280.2 89.8882 280.1 89.5882 280.2 89.3882C281.5 84.7882 283 81.8882 284.9 80.2882C284.6 79.2882 284.6 78.1882 285.1 76.9882C285.5 75.8882 286.3 74.7882 287.5 73.9882C286.9 73.3882 286.7 72.5882 286.9 71.5882C287.1 70.5882 287.9 69.3882 289 68.3882C288.5 67.8882 288.4 67.2882 288.4 66.8882C288.4 63.8882 293.9 59.3882 300.2 58.4882C300.5 58.3882 300.7 58.6882 300.8 58.8882C300.8 59.1882 300.6 59.3882 300.4 59.4882C294.5 60.2882 289.5 64.5882 289.5 66.8882C289.5 67.2882 289.6 67.5882 289.9 67.7882C292.2 66.1882 295.5 65.1882 299.2 65.8882C302.3 66.4882 303.5 67.0882 303.4 68.0882C303.1 69.8882 296.6 70.1882 292.2 69.6882C291.2 69.5882 290.5 69.2882 289.9 69.0882C288.8 69.9882 288.1 70.9882 287.9 71.7882C287.7 72.4882 288 73.0882 288.4 73.3882C290.3 72.3882 292.9 71.9882 296.3 72.7882C300.8 73.7882 301 74.3882 301.1 74.6882C301.2 74.8882 301.1 75.1882 300.9 75.3882C299.9 76.3882 293 75.8882 289.5 75.0882C289 74.9882 288.6 74.7882 288.3 74.5882C287.1 75.2882 286.4 76.2882 286 77.2882C285.7 78.0882 285.6 78.8882 285.8 79.5882C286 79.4882 286.2 79.3882 286.4 79.2882C288.5 78.2882 291 78.4882 294.1 79.7882C296.1 80.6882 297.1 81.4882 297.2 82.1882C297.2 82.3882 297.2 82.8882 296.6 83.1882C295.1 84.1882 289.7 84.0882 287 82.5882C286.3 82.2882 285.8 81.6882 285.5 81.0882C283.9 82.5882 282.5 85.2882 281.3 89.4882C281 89.8882 280.8 89.9882 280.6 89.9882ZM286 80.6882C286.3 81.1882 286.7 81.5882 287.2 81.8882C289.5 83.0882 293.9 83.3882 295.6 82.6882C295.9 82.5882 296 82.3882 296 82.3882C296 82.3882 295.9 81.7882 293.5 80.7882C290.7 79.5882 288.5 79.3882 286.7 80.2882C286.5 80.3882 286.2 80.4882 286 80.6882ZM289.4 74.0882C289.5 74.0882 289.6 74.0882 289.7 74.1882C293.2 75.0882 298 75.1882 299.6 74.8882C299.1 74.6882 298.1 74.2882 296 73.8882C293.1 73.2882 291 73.4882 289.4 74.0882ZM290.6 68.4882C291.1 68.6882 291.6 68.7882 292 68.7882C297 69.3882 301.4 68.6882 302 68.0882C301.8 67.8882 301.2 67.4882 298.7 66.9882C295.5 66.3882 292.6 67.1882 290.6 68.4882Z" fill="#005461"/>
<path d="M150.4 192.088C151.1 191.888 150.8 191.288 150.1 191.288H136.6C110.8 188.588 92.8001 192.188 104.2 193.088C115.6 193.988 103.4 193.788 95.1001 196.888C86.8001 199.988 156.8 200.788 163.1 196.888C168.9 193.188 141.3 194.988 150.4 192.088Z" fill="#005461"/>
<path d="M247.4 196.088L129.6 192.188L124.7 77.9882L263.8 81.0882L247.4 196.088Z" fill="#00A5AE"/>
<path d="M166.4 193.888C166.1 193.888 165.9 193.688 165.9 193.388L156.5 78.6882C156.5 78.3882 156.7 78.1882 157 78.1882C157.3 78.1882 157.5 78.3882 157.5 78.6882L166.9 193.388C166.9 193.588 166.7 193.888 166.4 193.888Z" fill="#005461"/>
<path d="M247.4 196.088L279 191.288L289 85.0882L263.8 81.0882L247.4 196.088Z" fill="#00A5AE"/>
<path opacity="0.2" d="M247.4 196.088L279 191.288L289 85.0882L263.8 81.0882L247.4 196.088Z" fill="black"/>
<path d="M139.6 170.188L136.7 102.288C136.4 95.1882 142.1 89.3882 149.2 89.4882L237.3 91.4882C244.7 91.6882 250.2 98.1882 249.2 105.488L239.4 173.888C238.5 180.088 233.1 184.588 226.8 184.388L151.4 181.888C145.1 181.688 139.9 176.588 139.6 170.188Z" fill="#005461"/>
<path d="M227.9 156.988C227.5 156.988 227.2 156.888 226.9 156.588L218.3 147.188L209.1 155.588C208.6 156.088 207.7 156.088 207.2 155.488L198.6 146.088L189.4 154.488C188.9 154.988 188 154.988 187.5 154.388L178.9 144.988L169.7 153.388C169.4 153.588 169.1 153.788 168.8 153.688C168.5 153.688 168.1 153.488 167.9 153.288L159.3 143.888L150.1 152.288C149.6 152.788 148.7 152.788 148.2 152.188C147.7 151.688 147.7 150.788 148.3 150.288L158.5 140.988C159 140.488 159.9 140.488 160.4 141.088L169 150.488L178.2 142.088C178.5 141.888 178.8 141.688 179.1 141.788C179.4 141.788 179.8 141.988 180 142.188L188.6 151.588L197.8 143.188C198.3 142.688 199.2 142.688 199.7 143.288L208.3 152.688L217.5 144.288C218 143.788 218.9 143.788 219.4 144.388L228.9 154.788C229.4 155.288 229.4 156.188 228.8 156.688C228.5 156.888 228.2 156.988 227.9 156.988Z" fill="#E5F6F7"/>
<path d="M69.7001 198.488L63.4 195.488L57.8 168.388L60.8 164.988L69.7001 198.488Z" fill="#00A5AE"/>
<path d="M69.7001 198.488L78.0001 193.688L70.8 171.288L60.8 164.988L69.7001 198.488Z" fill="#00A5AE"/>
<path opacity="0.2" d="M69.7001 198.488L78.0001 193.688L70.8 171.288L60.8 164.988L69.7001 198.488Z" fill="black"/>
<path d="M205.8 203.488C205.6 203.488 205.3 203.488 205.1 203.488C202.3 203.388 200.2 201.088 200.2 198.388C200.3 195.588 202.6 193.488 205.3 193.488C213 193.788 229.3 188.988 238.6 179.988C239.2 179.388 239.9 178.988 240.6 178.788C256.4 174.088 262.3 183.588 262.5 183.988L253.9 189.088C253.9 189.088 253.9 189.188 254 189.288C253.9 189.188 251.7 186.288 244.5 188.088C233.1 198.688 215.1 203.488 205.8 203.488Z" fill="#005461"/>
<path d="M205.3 210.088L187.1 208.988L185.6 175.388L210.1 176.288L205.3 210.088Z" fill="#00A5AE"/>
<path d="M205.3 210.088L209.6 205.888L212.2 184.888L210.1 176.288L205.3 210.088Z" fill="#00A5AE"/>
<path opacity="0.2" d="M205.3 210.088L209.6 205.888L212.2 184.888L210.1 176.288L205.3 210.088Z" fill="black"/>
<path d="M310.8 197.388C310.2 197.388 309.5 197.188 309 196.788C298.6 188.888 284.6 174.888 279.2 161.288C279.1 161.088 279.1 160.888 279 160.688C276.4 145.088 273.9 112.188 273.8 110.788C273.7 109.088 274.9 107.688 276.6 107.588C278.2 107.488 279.7 108.688 279.8 110.388C279.8 110.688 282.4 143.988 284.9 159.488C290.3 172.688 304.9 186.188 312.7 192.088C314 193.088 314.3 194.988 313.3 196.288C312.6 196.988 311.7 197.388 310.8 197.388Z" fill="#005461"/>
<path d="M324.7 198.888C322.4 198.888 319.8 197.788 316.9 195.788C315.6 194.788 315.3 192.988 316.2 191.588C317.2 190.288 319 189.988 320.4 190.888C322.9 192.688 324.2 192.888 324.7 192.888C326.4 192.888 327.7 194.188 327.7 195.888C327.7 197.588 326.3 198.888 324.7 198.888Z" fill="#005461"/>
<path d="M317.7 195.688C320.9 186.188 334.1 187.988 338.6 189.488C343.1 190.888 347.2 192.688 349.7 194.288C352.2 195.888 352.2 198.588 348.9 200.088C344.9 201.988 334.7 200.288 334.7 200.288C339.9 202.588 334.7 206.288 325.5 202.688C322.5 201.488 316.6 199.188 317.7 195.688Z" fill="#00A5AE"/>
<path d="M285.8 114.888C284.6 122.988 277.9 128.988 272.4 128.188C266.9 127.388 266.7 120.188 267.9 112.088C269.1 103.988 271.2 98.0882 276.7 98.8882C282.2 99.5882 287 106.788 285.8 114.888Z" fill="#005461"/>
<path d="M153.8 82.4882C154.242 82.4882 154.6 82.13 154.6 81.6882C154.6 81.2464 154.242 80.8882 153.8 80.8882C153.358 80.8882 153 81.2464 153 81.6882C153 82.13 153.358 82.4882 153.8 82.4882Z" fill="#005461"/>
<path d="M162.1 87.5882C162.1 88.0882 161.7 88.3882 161.3 88.3882C160.9 88.3882 160.5 87.9882 160.5 87.5882C160.5 87.0882 160.9 86.7882 161.3 86.7882C161.7 86.7882 162.1 87.1882 162.1 87.5882Z" fill="#005461"/>
<path d="M163 184.488C163 184.988 162.6 185.288 162.2 185.288C161.7 185.288 161.4 184.888 161.4 184.488C161.4 183.988 161.8 183.688 162.2 183.688C162.7 183.688 163 184.088 163 184.488Z" fill="#005461"/>
<path d="M170.5 190.388C170.5 190.888 170.1 191.188 169.7 191.188C169.2 191.188 168.9 190.788 168.9 190.388C168.9 189.888 169.3 189.588 169.7 189.588C170.2 189.588 170.5 189.988 170.5 190.388Z" fill="#005461"/>
<path d="M26.4 200.288C24 200.288 20.8 198.888 19.1 196.388C18.9 196.188 19 195.888 19.2 195.688C19.4 195.488 19.7 195.588 19.9 195.788C21.8 198.488 25.9 199.888 27.7 199.088C27.9 198.988 28 198.888 28.2 198.788C26.6 197.988 25.1 196.588 24.7 194.288C24.5 192.988 24.3 191.288 25.3 191.088C26.7 190.788 28.6 194.188 29.3 196.888C29.4 197.388 29.5 197.788 29.4 198.188C30 198.388 30.7 198.388 31.2 198.288C31.6 198.188 32.2 198.088 32.6 197.588C31.4 196.788 30.6 195.288 30.3 193.388C29.9 190.688 30.2 190.188 30.5 189.988C30.7 189.788 30.9 189.788 31.2 189.888C32.3 190.388 33.6 194.188 33.8 196.388C33.8 196.588 33.8 196.888 33.8 197.088C34.2 197.288 34.7 197.388 35.1 197.388C36 197.388 36.8 197.188 37.5 196.788C37.4 196.688 37.2 196.588 37.1 196.488C36.1 195.588 35.6 194.188 35.8 192.188C35.9 190.588 36.3 189.788 36.9 189.488C37.1 189.388 37.6 189.288 38.1 189.688C39.2 190.588 40.2 193.288 39.8 195.288C39.7 195.688 39.5 196.088 39.3 196.488C41.1 196.788 43.7 196.288 45.9 195.788C46.2 195.688 46.4 195.888 46.5 196.188C46.6 196.488 46.4 196.688 46.1 196.788C43.4 197.488 40.5 197.988 38.4 197.388C37.5 198.088 36.2 198.588 34.9 198.588C34.3 198.588 33.8 198.488 33.3 198.288C32.9 198.988 32.2 199.388 31.2 199.588C30.5 199.688 29.8 199.588 29 199.388C28.8 199.788 28.4 200.088 28 200.288C27.6 200.188 27.1 200.288 26.4 200.288ZM25.5 191.988C25.4 192.188 25.3 192.688 25.6 193.988C25.9 195.788 27.1 197.088 28.4 197.688C28.4 197.488 28.4 197.288 28.3 196.988C27.6 194.188 26.1 192.188 25.5 191.988ZM31.1 191.088C31.1 191.488 31.1 192.088 31.3 193.188C31.5 194.588 32 195.688 32.8 196.388C32.6 194.388 31.7 192.088 31.1 191.088ZM37.4 190.188C37.4 190.188 37 190.388 36.9 192.088C36.8 193.788 37.1 194.888 37.8 195.588C38 195.788 38.2 195.888 38.4 195.988C38.7 195.688 38.9 195.288 38.9 194.988C39.2 193.588 38.5 191.388 37.7 190.588C37.6 190.288 37.4 190.188 37.4 190.188Z" fill="#005461"/>
<path d="M172.8 207.788L175.5 203.088L172.8 198.388H169.9L171.5 203.088L169.9 207.788H172.8Z" fill="#005461"/>
<path d="M170.1 205.588C168.8 205.588 167.7 204.488 167.7 203.088C167.7 201.788 168.8 200.688 170.1 200.688L165.5 199.788L164.3 203.488L166.4 206.588L170.1 205.588Z" fill="#005461"/>
<path d="M170.5 198.388H165.1L162.4 203.088L165.1 207.788H170.5L173.2 203.088L170.5 198.388ZM167.7 205.588C166.4 205.588 165.3 204.488 165.3 203.088C165.3 201.788 166.4 200.688 167.7 200.688C169.1 200.688 170.1 201.788 170.1 203.088C170.2 204.488 169.1 205.588 167.7 205.588Z" fill="#00A5AE"/>
<path d="M361.8 198.088L359.8 194.588L361.8 191.088H363.9L362.7 194.588L363.9 198.088H361.8Z" fill="#00A5AE"/>
<path d="M363.8 196.388C364.8 196.388 365.6 195.588 365.6 194.588C365.6 193.588 364.8 192.788 363.8 192.788L367.2 192.088L368.1 194.888L366.6 197.188L363.8 196.388Z" fill="#00A5AE"/>
<path d="M363.5 191.088H367.5L369.5 194.588L367.5 198.088H363.5L361.5 194.588L363.5 191.088ZM365.5 196.388C366.5 196.388 367.3 195.588 367.3 194.588C367.3 193.588 366.5 192.788 365.5 192.788C364.5 192.788 363.7 193.588 363.7 194.588C363.7 195.588 364.5 196.388 365.5 196.388Z" fill="#005461"/>
<path d="M286.8 202.688H291.3C292.5 202.688 293.4 201.688 293.4 200.588C293.4 199.388 292.4 198.488 291.3 198.488H286.8C285.6 198.488 284.7 199.488 284.7 200.588C284.7 201.788 285.7 202.688 286.8 202.688Z" fill="#005461"/>
<path d="M279.6 198.688C280.7 196.288 283.4 195.288 285.6 196.288C287.8 197.288 288.7 200.088 287.6 202.488C286.5 204.888 283.8 205.888 281.6 204.888C279.4 203.788 278.5 201.088 279.6 198.688Z" fill="#00A5AE"/>
<path d="M280.86 204.791L282.127 205.388L286.434 196.253L285.168 195.656L280.86 204.791Z" fill="#005461"/>
<path d="M163.235 127.085L159.776 126.924L154.644 116.954L154.565 116.95C154.597 118.67 154.595 119.896 154.561 120.628L154.28 126.668L151.848 126.555L152.446 113.719L155.878 113.879L161.006 123.752L161.067 123.755C161.057 122.083 161.068 120.901 161.1 120.211L161.383 114.135L163.833 114.249L163.235 127.085ZM178.425 121.343C178.326 123.467 177.723 125.076 176.616 126.168C175.51 127.26 173.973 127.761 172.006 127.669C170.04 127.578 168.556 126.937 167.556 125.746C166.555 124.556 166.105 122.893 166.204 120.756C166.304 118.62 166.907 117.014 168.012 115.94C169.124 114.859 170.667 114.365 172.639 114.457C174.612 114.549 176.092 115.187 177.081 116.371C178.076 117.555 178.524 119.212 178.425 121.343ZM169.057 120.907C168.99 122.341 169.212 123.433 169.723 124.184C170.233 124.935 171.03 125.336 172.113 125.387C174.284 125.488 175.437 124.095 175.571 121.21C175.706 118.318 174.693 116.823 172.534 116.722C171.451 116.672 170.617 116.999 170.033 117.705C169.449 118.406 169.124 119.473 169.057 120.907ZM196.41 122.075C196.312 124.188 195.634 125.778 194.376 126.845C193.123 127.913 191.362 128.394 189.091 128.289L185.456 128.12L186.054 115.284L190.084 115.471C192.179 115.569 193.78 116.198 194.888 117.358C195.995 118.518 196.503 120.09 196.41 122.075ZM193.58 122.013C193.708 119.256 192.555 117.821 190.12 117.708L188.672 117.641L188.282 125.999L189.45 126.053C192.072 126.175 193.449 124.829 193.58 122.013ZM206.624 129.105L205.835 126.006L201.156 125.789L200.083 128.801L197.15 128.664L202.281 115.987L205.608 116.141L209.556 129.242L206.624 129.105ZM205.292 123.694C204.56 120.885 204.147 119.297 204.053 118.929C203.965 118.561 203.902 118.27 203.865 118.058C203.637 118.798 202.997 120.625 201.947 123.538L205.292 123.694ZM216.132 129.548L213.41 129.421L213.902 118.851L210.417 118.688L210.522 116.423L220.215 116.874L220.109 119.14L216.624 118.977L216.132 129.548ZM229.45 130.168L228.662 127.069L223.983 126.851L222.91 129.863L219.977 129.727L225.108 117.049L228.435 117.204L232.383 130.304L229.45 130.168ZM228.119 124.756C227.387 121.948 226.974 120.36 226.88 119.991C226.791 119.624 226.729 119.333 226.692 119.12C226.464 119.861 225.824 121.687 224.774 124.601L228.119 124.756Z" fill="#E5F6F7"/>
</svg>
